<svg width="46" height="47" viewBox="0 0 46 47" fill="none" xmlns="http://www.w3.org/2000/svg">
<rect y="5" width="46" height="42" fill="black"/>
<rect x="2.5" y="7.5" width="37" height="37" stroke="white"/>
<rect x="34" y="26" width="8" height="20" fill="black"/>
<path d="M33.47 34.58C33.13 35.22 32.67 35.68 32.09 35.96C31.51 36.24 30.84 36.41 30.08 36.47C29.32 36.55 28.5 36.58 27.62 36.56C26.4 36.52 25.24 36.35 24.14 36.05C23.06 35.75 22.14 35.3 21.38 34.7C20.62 34.08 20.1 33.31 19.82 32.39C20.02 31.53 20.11 30.46 20.09 29.18C20.07 27.88 20.02 26.57 19.94 25.25C19.92 24.77 19.9 24.3 19.88 23.84C19.86 23.36 19.84 22.9 19.82 22.46C19.82 22.4 19.82 22.3 19.82 22.16C19.82 22.04 19.82 21.93 19.82 21.83C19.84 21.71 19.84 21.6 19.82 21.5C19.78 21.28 19.72 21.09 19.64 20.93C19.58 20.75 19.51 20.58 19.43 20.42C19.33 20.22 19.24 20.02 19.16 19.82C19.08 19.6 19.06 19.33 19.1 19.01C19.5 18.97 19.96 19.05 20.48 19.25C21 19.45 21.47 19.75 21.89 20.15C22.31 20.55 22.54 21.04 22.58 21.62C22.6 21.86 22.59 22.1 22.55 22.34C22.51 22.56 22.46 22.78 22.4 23C22.32 23.3 22.25 23.61 22.19 23.93C22.15 24.25 22.18 24.59 22.28 24.95C23.1 24.69 23.84 24.35 24.5 23.93C25.16 23.51 25.75 23.02 26.27 22.46C26.29 22.24 26.24 22.06 26.12 21.92C26.02 21.78 25.91 21.65 25.79 21.53C25.69 21.43 25.6 21.33 25.52 21.23C25.44 21.13 25.42 21.02 25.46 20.9C25.78 20.76 26.1 20.71 26.42 20.75C26.76 20.79 27.09 20.86 27.41 20.96C27.53 20.98 27.65 21.01 27.77 21.05C27.89 21.07 28.01 21.09 28.13 21.11C28.19 21.23 28.29 21.35 28.43 21.47C28.57 21.59 28.72 21.72 28.88 21.86C29.18 22.08 29.46 22.34 29.72 22.64C30 22.92 30.11 23.27 30.05 23.69C29.17 23.99 28.34 24.36 27.56 24.8C26.78 25.24 25.98 25.65 25.16 26.03C24.34 26.41 23.41 26.68 22.37 26.84C22.19 27.68 22.11 28.61 22.13 29.63C22.15 30.63 22.19 31.61 22.25 32.57C22.25 32.63 22.25 32.7 22.25 32.78C22.27 32.86 22.28 32.94 22.28 33.02C22.62 33.36 23.06 33.61 23.6 33.77C24.14 33.93 24.72 34.03 25.34 34.07C25.96 34.09 26.56 34.06 27.14 33.98C27.72 33.9 28.22 33.79 28.64 33.65C29.16 33.13 29.42 32.47 29.42 31.67C29.42 30.85 29.37 30.05 29.27 29.27C29.25 29.07 29.23 28.87 29.21 28.67C29.19 28.47 29.17 28.28 29.15 28.1C29.21 28.12 29.28 28.14 29.36 28.16C29.44 28.16 29.51 28.17 29.57 28.19C29.91 28.25 30.21 28.34 30.47 28.46C30.73 28.56 30.84 28.79 30.8 29.15C31.16 29.35 31.41 29.64 31.55 30.02C31.69 30.38 31.8 30.77 31.88 31.19C31.96 31.61 32.08 32.01 32.24 32.39C32.4 32.75 32.67 33.03 33.05 33.23C33.03 33.43 33.04 33.6 33.08 33.74C33.14 33.88 33.2 34.01 33.26 34.13C33.3 34.19 33.34 34.26 33.38 34.34C33.42 34.42 33.45 34.5 33.47 34.58ZM31.91 17.03C31.35 17.01 30.82 16.99 30.32 16.97C29.82 16.93 29.34 16.9 28.88 16.88C28.2 16.82 27.54 16.78 26.9 16.76C26.26 16.72 25.61 16.71 24.95 16.73C24.75 17.19 24.58 17.59 24.44 17.93C24.32 18.27 24.18 18.73 24.02 19.31C23.56 19.39 23.16 19.28 22.82 18.98C22.48 18.68 22.2 18.37 21.98 18.05C21.98 17.85 22 17.69 22.04 17.57C22.08 17.43 22.13 17.3 22.19 17.18C22.23 17.12 22.26 17.05 22.28 16.97C22.32 16.89 22.35 16.8 22.37 16.7C21.59 16.64 20.81 16.65 20.03 16.73C19.25 16.79 18.37 16.88 17.39 17C17.25 17.02 17.11 17.04 16.97 17.06C16.83 17.08 16.68 17.1 16.52 17.12C16.36 17.5 16.29 17.88 16.31 18.26C16.35 18.64 16.28 19.03 16.1 19.43C15.62 19.51 15.17 19.4 14.75 19.1C14.33 18.78 14.07 18.33 13.97 17.75C13.65 17.75 13.37 17.8 13.13 17.9C12.91 17.98 12.7 18.07 12.5 18.17C12.24 18.29 11.97 18.4 11.69 18.5C11.43 18.6 11.09 18.63 10.67 18.59C10.45 18.31 10.13 18.03 9.71 17.75C9.29 17.47 8.9 17.16 8.54 16.82C8.2 16.46 8.02 16.04 8 15.56C8.42 15.52 8.85 15.51 9.29 15.53C9.73 15.55 10.17 15.58 10.61 15.62C11.13 15.68 11.65 15.72 12.17 15.74C12.69 15.76 13.22 15.73 13.76 15.65C13.92 15.15 13.89 14.73 13.67 14.39C13.47 14.05 13.24 13.72 12.98 13.4C12.76 13.14 12.56 12.88 12.38 12.62C12.22 12.34 12.2 12.03 12.32 11.69C12.66 11.61 13.07 11.65 13.55 11.81C14.05 11.95 14.54 12.16 15.02 12.44C15.5 12.72 15.86 13.03 16.1 13.37C16.14 13.63 16.17 13.92 16.19 14.24C16.23 14.56 16.24 14.93 16.22 15.35C17.24 15.21 18.3 15.13 19.4 15.11C20.5 15.07 21.59 15.01 22.67 14.93C22.69 14.71 22.73 14.51 22.79 14.33C22.85 14.13 22.91 13.94 22.97 13.76C23.05 13.56 23.11 13.36 23.15 13.16C23.21 12.94 23.23 12.73 23.21 12.53C23.19 12.37 23.13 12.21 23.03 12.05C22.93 11.89 22.82 11.74 22.7 11.6C22.54 11.38 22.4 11.16 22.28 10.94C22.18 10.72 22.21 10.48 22.37 10.22C22.65 10.32 22.99 10.42 23.39 10.52C23.79 10.6 24.19 10.71 24.59 10.85C24.99 10.99 25.33 11.19 25.61 11.45C25.89 11.69 26.04 12.01 26.06 12.41C26.08 12.63 26.05 12.83 25.97 13.01C25.89 13.17 25.8 13.33 25.7 13.49C25.58 13.67 25.47 13.86 25.37 14.06C25.29 14.26 25.25 14.51 25.25 14.81C25.35 14.89 25.48 14.93 25.64 14.93C25.82 14.93 26 14.93 26.18 14.93C26.28 14.93 26.38 14.93 26.48 14.93C26.6 14.91 26.7 14.91 26.78 14.93C26.82 14.79 26.89 14.7 26.99 14.66C27.11 14.62 27.21 14.57 27.29 14.51C27.37 14.53 27.45 14.55 27.53 14.57C27.61 14.57 27.69 14.57 27.77 14.57C28.23 14.63 28.75 14.72 29.33 14.84C29.91 14.94 30.45 15.08 30.95 15.26C31.45 15.44 31.8 15.67 32 15.95C32.22 16.23 32.19 16.59 31.91 17.03ZM17.36 21.32C17.32 21.58 17.17 21.84 16.91 22.1C16.67 22.34 16.39 22.6 16.07 22.88C15.77 23.14 15.5 23.42 15.26 23.72C15.02 24 14.89 24.31 14.87 24.65C14.97 24.77 15.06 24.92 15.14 25.1C15.22 25.26 15.3 25.42 15.38 25.58C15.26 26.64 15.2 27.7 15.2 28.76C15.2 29.8 15.21 30.84 15.23 31.88C15.27 32.78 15.29 33.67 15.29 34.55C15.29 35.43 15.25 36.28 15.17 37.1C14.57 37.12 14.13 36.96 13.85 36.62C13.57 36.3 13.32 35.95 13.1 35.57C13.02 35.43 12.93 35.28 12.83 35.12C12.75 34.96 12.65 34.82 12.53 34.7C12.63 34.4 12.71 34.13 12.77 33.89C12.85 33.63 12.9 33.34 12.92 33.02C13.14 32.1 13.25 31.16 13.25 30.2C13.27 29.22 13.23 28.21 13.13 27.17C12.55 27.79 11.89 28.48 11.15 29.24C10.41 30 9.64 30.67 8.84 31.25C8.86 31.29 8.9 31.31 8.96 31.31C9.02 31.29 9.06 31.27 9.08 31.25C9.04 31.41 8.9 31.57 8.66 31.73C8.44 31.89 8.21 32.05 7.97 32.21C7.73 32.37 7.57 32.57 7.49 32.81C7.15 32.91 6.85 32.9 6.59 32.78C6.33 32.66 6.08 32.52 5.84 32.36C5.74 32.28 5.64 32.21 5.54 32.15C5.44 32.07 5.34 32.01 5.24 31.97C6 31.75 6.68 31.34 7.28 30.74C7.88 30.14 8.44 29.48 8.96 28.76C9.48 28.02 9.98 27.35 10.46 26.75C10.88 26.23 11.27 25.79 11.63 25.43C12.01 25.05 12.34 24.55 12.62 23.93V23.18C13.02 23.16 13.3 23.03 13.46 22.79C13.64 22.55 13.78 22.28 13.88 21.98C14 21.66 14.16 21.4 14.36 21.2C14.22 20.94 14.07 20.71 13.91 20.51C13.77 20.31 13.62 20.09 13.46 19.85C13.76 19.79 14.14 19.75 14.6 19.73C15.06 19.71 15.51 19.74 15.95 19.82C16.39 19.88 16.75 20.03 17.03 20.27C17.31 20.49 17.42 20.84 17.36 21.32Z" fill="white"/>
<path d="M40.44 27.94H44.45V28.63H40.44V27.94ZM40.35 30.65H41.06V35.81H40.35V30.65ZM40.65 26.6L41.39 26.75C41.03 28.09 40.4 29.33 39.64 30.14C39.51 30.01 39.21 29.77 39.03 29.67C39.77 28.93 40.34 27.8 40.65 26.6ZM42.32 30.14C42.65 32.35 43.36 34.3 44.72 35.16C44.54 35.29 44.31 35.58 44.2 35.77C42.76 34.75 42.05 32.7 41.67 30.23L42.32 30.14ZM44.12 30.65L44.66 31.11C44.1 31.66 43.32 32.26 42.74 32.65L42.28 32.22C42.85 31.82 43.66 31.15 44.12 30.65ZM35.45 28.22H39.53V28.93H35.45V28.22ZM36.97 30.23H38.76V30.92H36.97V30.23ZM37.2 26.62H37.93V28.49H37.2V26.62ZM38.49 30.23H39.19C39.19 30.23 39.19 30.47 39.18 30.57C39.11 33.94 39.05 35.08 38.8 35.43C38.64 35.65 38.47 35.72 38.21 35.75C37.97 35.78 37.55 35.77 37.14 35.76C37.12 35.55 37.06 35.26 36.95 35.07C37.35 35.11 37.72 35.12 37.88 35.12C38.03 35.12 38.11 35.09 38.18 34.98C38.36 34.74 38.44 33.63 38.49 30.38V30.23ZM36.61 28.68H37.28V30.31C37.28 32.01 37.12 34.07 35.84 35.83C35.71 35.68 35.46 35.5 35.27 35.38C36.48 33.75 36.61 31.79 36.61 30.31V28.68ZM43.55 28.92L44.1 29.32C43.11 30.08 41.23 30.9 39.81 31.3C39.71 31.1 39.52 30.83 39.35 30.67C40.77 30.36 42.65 29.61 43.55 28.92Z" fill="white"/>
<path d="M40.51 44.64H43.96V45.29H40.51V44.64ZM40.19 39.3H40.88V45.8H40.19V39.3ZM40.51 39.3H43.84V41.79H40.51V41.17H43.15V39.92H40.51V39.3ZM39.59 37.69H44.5V39.38H43.8V38.32H40.27V39.38H39.59V37.69ZM41.62 36.6H42.35V38.03H41.62V36.6ZM40.51 42.64H44.26V45.73H43.56V43.27H40.51V42.64ZM37.38 38.3H38.02V39.54H37.38V38.3ZM36.07 39.24H36.74V44.82H36.07V39.24ZM36.49 40.6H38.81V41.13H36.49V40.6ZM35.38 44.7C36.23 44.52 37.5 44.2 38.74 43.89L38.81 44.5C37.7 44.83 36.51 45.16 35.61 45.4L35.38 44.7ZM37.74 43.14L38.33 42.87C38.87 43.57 39.41 44.51 39.6 45.14L38.97 45.44C38.77 44.82 38.26 43.85 37.74 43.14ZM36.44 39.24H39.14V42.51H36.44V41.93H38.47V39.82H36.44V39.24ZM37.17 36.61H37.58V36.77H37.8V36.97C37.39 37.74 36.7 38.81 35.65 39.67C35.55 39.51 35.34 39.29 35.18 39.19C36.14 38.43 36.81 37.41 37.17 36.61ZM37.36 36.61H37.9C38.51 37.12 39.22 37.86 39.55 38.37L39.05 38.92C38.74 38.42 38.09 37.6 37.5 37.12H37.36V36.61Z" fill="white"/>
</svg>
